<svg xmlns="http://www.w3.org/2000/svg" viewBox="0 0 128 128"><g data-name="Layer 2"><g data-name="Layer 1"><path d="M0 108.8A19.15 19.15 0 0 0 19.2 128h89.6a19.15 19.15 0 0 0 19.2-19.2V19.2A19.15 19.15 0 0 0 108.8 0H19.2A19.15 19.15 0 0 0 0 19.2z" style="fill:#1572b6"/><path d="m27.7 23.14 6.55 73.55 29.43 8.17 29.51-8.18 6.57-73.54zM84 64.18 82 82v1.52l-18.27 5.09-18.48-5.05L44 69.47h9l.64 7.12 10 2.68 10.16-2.85 1.06-11.83h-21l-.18-1.91-.42-4.59-.26-2.44h22.66l.83-8.94H42l-.18-2.1-.42-4.9-.24-2.71h45.19l-.22 2.71L84 64.18" style="fill:#fff"/></g></g></svg>