<svg xmlns="http://www.w3.org/2000/svg" viewBox="0 0 128 128"><g data-name="Layer 2"><g data-name="Layer 1"><path d="M0 108.8A19.15 19.15 0 0 0 19.2 128h89.6a19.15 19.15 0 0 0 19.2-19.2V19.2A19.15 19.15 0 0 0 108.8 0H19.2A19.15 19.15 0 0 0 0 19.2z" style="fill:#066da5"/><path d="M73.91 51.92h10.36v9.37H73.91zm-12.33 0h10.36v9.37H61.58zm-12.09 0h10.36v9.37H49.49zm-12.08 0h10.11v9.37H37.41zm-12.33 0h10.36v9.37H25.08zm12.33-11.35h10.11v9.37H37.41zm12.08 0h10.36v9.37H49.49zm12.09 0h10.36v9.37H61.58zm0-11.34h10.36v9.37H61.58zm40.2 37.48c-8.63 20.72-26.88 32.06-51.3 32.06-34 0-34-31.07-32.8-35.76H85.5a16.57 16.57 0 0 0 7.65-1.72C88 51.67 95.12 43 95.12 43s7.65 4.19 8.63 11.34c9.13-1.48 13.57 2.71 13.57 2.71s-2.72 10.65-15.54 9.66z" style="fill:#fff"/></g></g></svg>