<svg xmlns="http://www.w3.org/2000/svg" viewBox="0 0 128 128"><g data-name="Layer 2"><g data-name="Layer 1"><path d="M0 108.8A19.15 19.15 0 0 0 19.2 128h89.6a19.15 19.15 0 0 0 19.2-19.2V19.2A19.15 19.15 0 0 0 108.8 0H19.2A19.15 19.15 0 0 0 0 19.2z" style="fill:#f03c2e"/><path d="M104.43 60.06a5.43 5.43 0 0 1 0 7.63L68 104.08a5.39 5.39 0 0 1-7.63 0L23.84 67.52a5.41 5.41 0 0 1 0-7.63l25.09-25 9.49 9.49a6.42 6.42 0 0 0 1.39 7 7.07 7.07 0 0 0 2.1 1.38v23a6.34 6.34 0 0 0-2.1 1.4 6.42 6.42 0 0 0 0 9.08 6.42 6.42 0 1 0 9.07-9.08 6.54 6.54 0 0 0-1.7-1.21v-22.8l8.64 8.63a6.42 6.42 0 1 0 10.47-2.1 6.47 6.47 0 0 0-6.63-1.52l-9.28-9.28a6.4 6.4 0 0 0-8.11-8.16l-9.63-9.63 7.59-7.59a5.39 5.39 0 0 1 7.63 0l36.57 36.56" style="fill:#fff"/></g></g></svg>