<svg xmlns="http://www.w3.org/2000/svg" viewBox="0 0 128 128"><g data-name="Layer 2"><g data-name="Layer 1"><path d="M0 108.8A19.15 19.15 0 0 0 19.2 128h89.6a19.15 19.15 0 0 0 19.2-19.2V19.2A19.15 19.15 0 0 0 108.8 0H19.2A19.15 19.15 0 0 0 0 19.2z" style="fill:#e44d26"/><path d="m28 23.14 6.56 73.55L64 104.86l29.5-8.18 6.5-73.54zm58.35 17.45-.41 4.58-.18 2H51.24l.82 9.23h32.88l-.22 2.43L82.6 82.6l-.14 1.53L64 89.24l-18.52-5.11L44.22 70h9.05l.64 7.2L64 79.87l10-2.72 1-11.7H43.81L41.6 40.59l-.22-2.42h45.19z" style="fill:#fff"/></g></g></svg>