<svg xmlns="http://www.w3.org/2000/svg" viewBox="0 0 128 128"><g data-name="Layer 2"><g data-name="Layer 1"><path d="M0 108.8A19.15 19.15 0 0 0 19.2 128h89.6a19.15 19.15 0 0 0 19.2-19.2V19.2A19.15 19.15 0 0 0 108.8 0H19.2A19.15 19.15 0 0 0 0 19.2z" style="fill:#f7df1e"/><path d="M37.89 92.26 28 98.85c13.18 19.77 36.25 9.88 36.25-6.59V49.42H52.71v42.84c0 6.59-9.88 9.88-14.82 0zm64.25-28 9.06-5.77c-11.53-18.96-36.2-9.9-35.42 6.58 0 21.42 25.54 15.65 26.36 27.19 0 6.59-13.18 10.7-20.59-.83l-9.89 5.77c9.89 17.3 42 18.12 42.84-4.94 0-19.78-27.19-18.13-27.19-27.19 0-5.77 8.24-9.89 14.83-.82" style="fill:#fff;fill-rule:evenodd"/></g></g></svg>