<svg xmlns="http://www.w3.org/2000/svg" viewBox="0 0 128 128"><defs><style>.cls-1{fill:#326ce5;}.cls-2{fill:#fff;stroke:#fff;stroke-linecap:round;stroke-linejoin:round;stroke-width:0.11px;}</style></defs><g id="Layer_2" data-name="Layer 2"><g id="Layer_1-2" data-name="Layer 1"><path class="cls-1" d="M0,108.8A19.15,19.15,0,0,0,19.2,128h89.6A19.15,19.15,0,0,0,128,108.8V19.2A19.15,19.15,0,0,0,108.8,0H19.2A19.15,19.15,0,0,0,0,19.2Z"/><path class="cls-2" d="M63.69,21.83a5.93,5.93,0,0,1,2.81.6l30.22,14.4a5.79,5.79,0,0,1,3.13,3.89l7.45,32.44A5.54,5.54,0,0,1,106.22,78L85.31,104a5.87,5.87,0,0,1-4.51,2.15H47.25A5.75,5.75,0,0,1,42.74,104L21.82,78c-.11-.15-.22-.3-.32-.46a5.58,5.58,0,0,1-.82-4.42l7.41-32.43a5.71,5.71,0,0,1,3.12-3.89L61.49,22.43a5.74,5.74,0,0,1,2.23-.6Z"/><path class="cls-1" d="M64,32.89a1.91,1.91,0,0,1,1.78,2v.54a13.43,13.43,0,0,1-.25,1.72,17.16,17.16,0,0,0-.2,3.28,1.39,1.39,0,0,0,.59.9c0,.13,0,.54,0,.81A23.74,23.74,0,0,1,81,49.4l.69-.49a2,2,0,0,0,1.1-.12,16.65,16.65,0,0,0,2.37-2.23,14.3,14.3,0,0,1,1.19-1.27l.4-.32a1.83,1.83,0,0,1,1.89-.43,1.78,1.78,0,0,1,.95.76A1.82,1.82,0,0,1,89,47.8l-.4.32a14,14,0,0,1-1.5.88,17.27,17.27,0,0,0-2.68,1.89,1.39,1.39,0,0,0-.34,1l-.64.59a23.53,23.53,0,0,1,3.76,16.28L88,69a2,2,0,0,0,.78.79,16.85,16.85,0,0,0,3.24.53,14.57,14.57,0,0,1,1.74.14l.53.12a1.8,1.8,0,0,1,1.47,1.21,1.78,1.78,0,0,1,0,1.14,1.83,1.83,0,0,1-2.29,1.18h0L92.93,74a10.1,10.1,0,0,1-1.63-.62,19.25,19.25,0,0,0-3.15-.92,1.46,1.46,0,0,0-1,.37l-.77-.13A23.57,23.57,0,0,1,76,85.79a5.1,5.1,0,0,0,.3.73,1.42,1.42,0,0,0-.19,1.08,19.4,19.4,0,0,0,1.63,2.88,14,14,0,0,1,1,1.44l.23.49a1.81,1.81,0,0,1,0,1.9A1.79,1.79,0,0,1,78,95,1.81,1.81,0,0,1,75.67,94l-.23-.46a15.28,15.28,0,0,1-.53-1.66,16.72,16.72,0,0,0-1.24-3,1.42,1.42,0,0,0-.92-.56l-.36-.69a23.36,23.36,0,0,1-16.69,0l-.41.74a1.55,1.55,0,0,0-.78.38,13.28,13.28,0,0,0-1.4,3.25,15.34,15.34,0,0,1-.52,1.63l-.22.46a1.81,1.81,0,1,1-3.27-1.54l.23-.49a15.91,15.91,0,0,1,1-1.45,17.52,17.52,0,0,0,1.64-3,1.79,1.79,0,0,0-.16-1l.33-.69a23.48,23.48,0,0,1-10.43-13l-.82.13a2,2,0,0,0-1-.37,17.36,17.36,0,0,0-3.16.93,15.68,15.68,0,0,1-1.62.59l-.49,0h0a1.83,1.83,0,0,1-1.86-.44,1.89,1.89,0,0,1-.5-1,1.82,1.82,0,0,1,1.55-2.05h.06l.48-.11A14.55,14.55,0,0,1,36,70.33a17,17,0,0,0,3.24-.54A2.42,2.42,0,0,0,40,69l.76-.22a23.4,23.4,0,0,1,3.69-16.31l-.59-.54a2.08,2.08,0,0,0-.37-1A15.52,15.52,0,0,0,40.79,49a16.3,16.3,0,0,1-1.5-.88l-.37-.27a1.92,1.92,0,0,1-.45-2.67,1.75,1.75,0,0,1,1.45-.64,2.13,2.13,0,0,1,1.25.48l.41.32a15.57,15.57,0,0,1,1.18,1.26,17,17,0,0,0,2.44,2.2,1.38,1.38,0,0,0,1.07.11l.65.46a23.25,23.25,0,0,1,11.83-6.75,24.14,24.14,0,0,1,3.27-.5l0-.77a1.94,1.94,0,0,0,.59-.94,16.33,16.33,0,0,0-.18-3.28,17,17,0,0,1-.25-1.72v-.51a1.91,1.91,0,0,1,1.78-2Zm-2.29,14a17.85,17.85,0,0,0-1.92.31,18.59,18.59,0,0,0-9,4.88l7.78,5.52a1.53,1.53,0,0,0,1.63.14,1.63,1.63,0,0,0,.9-1.36h0l.54-9.49Zm5.1,9.47a1.65,1.65,0,0,0,.34,1,1.6,1.6,0,0,0,2.25.27l7.71-5.48a19,19,0,0,0-10.86-5.22ZM48,55.67a18.63,18.63,0,0,0-2.65,11.79l9.13-2.63v0a1.51,1.51,0,0,0,.76-.47,1.61,1.61,0,0,0-.13-2.27v0L48,55.67ZM80,55.7,72.88,62a1.6,1.6,0,0,0,.63,2.74v0l9.15,2.64a19,19,0,0,0-2.72-11.76ZM60.73,64.78l.62,2.82L64,68.86l2.62-1.26.64-2.82-1.78-2.26H62.54Zm11.13,5.49a1.52,1.52,0,0,0-.53.12,1.6,1.6,0,0,0-.85,2.1l3.63,8.81a18.49,18.49,0,0,0,7.54-9.48l-9.41-1.59a1.15,1.15,0,0,0-.37,0ZM56,70.29a1.71,1.71,0,0,0-.32,0l-9.33,1.59a18.63,18.63,0,0,0,7.49,9.38l3.61-8.74v0A1.58,1.58,0,0,0,57.37,71a1.61,1.61,0,0,0-1.32-.73ZM64,74.12a1.6,1.6,0,0,0-1.35.8L58,83.23a18.76,18.76,0,0,0,10.21.52L70,83.21l-4.61-8.3h0a1.59,1.59,0,0,0-1.46-.84Z"/></g></g></svg>