<svg xmlns="http://www.w3.org/2000/svg" viewBox="0 0 128 128"><g data-name="Layer 2"><g data-name="Layer 1"><path d="M0 108.8A19.15 19.15 0 0 0 19.2 128h89.6a19.15 19.15 0 0 0 19.2-19.2V19.2A19.15 19.15 0 0 0 108.8 0H19.2A19.15 19.15 0 0 0 0 19.2z" style="fill:#ef533f"/><path d="M75.26 95.6a1.44 1.44 0 0 0 .46-.08l31.49-11a1.43 1.43 0 0 0 .7-2.18l-10.49-14.8 12-3.27a1.42 1.42 0 0 0 1-.94 1.44 1.44 0 0 0-.24-1.34L98.74 47.76a1.45 1.45 0 0 0-1.45-.49l-13.18 3.12a1.39 1.39 0 0 0-1 .9 1.45 1.45 0 0 0 .18 1.32l9.4 13.27-28.16 7.66-24.25-40.47a1.44 1.44 0 0 0-1.42-.68L18.78 35.1a1.43 1.43 0 0 0-1.09.76 1.45 1.45 0 0 0 0 1.33l23.67 44.48a1.45 1.45 0 0 0 1.6.72l20.25-5.52L74 94.92a1.43 1.43 0 0 0 1.23.7zm19.23-27.24 10 14.08-28.59 10-9.83-16.35zm-56.18-33 23.4 39-18.38 5L21.2 37.64zM97.1 50.27l9.51 11.84-10.93 3-8.78-12.42z" style="fill:#fff"/></g></g></svg>