<svg xmlns="http://www.w3.org/2000/svg" viewBox="0 0 128 128"><g data-name="Layer 2"><g data-name="Layer 1"><path d="M0 108.8A19.15 19.15 0 0 0 19.2 128h89.6a19.15 19.15 0 0 0 19.2-19.2V19.2A19.15 19.15 0 0 0 108.8 0H19.2A19.15 19.15 0 0 0 0 19.2z" style="fill:#00678c"/><path d="M99.41 86.52c-.52-1.15-3.06-2.6-4-3.3l-5.8-3.92a39.22 39.22 0 0 0-4-1.64c-1.56-.66-5-1.28-5.91-2.5a39.39 39.39 0 0 1-4.09-7.78l-3.93-8.51c-.66-1.38-.94-2.6-1.63-3.92A51.52 51.52 0 0 0 52 35.15a37.19 37.19 0 0 0-8.34-4c-1.73-.52-3.82-.21-5.66-.62h-1.21c-1-.32-1.92-1.39-2.71-2a29.56 29.56 0 0 0-5.73-2.89c-.77-.35-2.89-1.14-3.65-.52-.11.1 0 .28-.45.69-.45.7-.07 1.74.21 2.44a33 33 0 0 0 3.19 4.51L31 37.27c1.5 3.23 2.19 6.84 3.58 10.07a23.06 23.06 0 0 0 2.08 3.72c.66.86 1.81 1.49 2.16 2.6.69 1.15-1 5-1.46 6.18-1.49 4.69-1.22 11.36.52 15.46.69 1.63 1.32 3.54 3.4 3.89.42-3.2.52-6.25 1.63-8.75.63-1.57 1.91-2.64 2.78-3.93.59.35.59 1.39.94 2.08.77 1.81 1.56 3.76 2.5 5.56a74.74 74.74 0 0 0 6.47 10.52 28.54 28.54 0 0 0 3 3.48 5.53 5.53 0 0 1 1.32 1.14h.11v.18C58.31 88.84 57.2 87 55.81 86a33.34 33.34 0 0 1-7.53-7.78l-2.36-4.79v-.1c-.35.48-.25.94-.42 1.63-.77 2.88-.18 6.18-2.78 7.22-2.61 1.22-5.14-1.94-6.08-3.4C33.69 74 32.89 65.85 35 59.32c.46-1.45.52-3.19 1.32-4.34-.17-1-1-1.35-1.46-2l-2.15-3.58-3-7.78-.94-3.06a28.12 28.12 0 0 0-2.95-4.34c-1.32-1.9-5.21-5.62-3.64-9.37 2.08-6 10.59-1.46 13.89.62a25.6 25.6 0 0 0 2.67 2l4.34.24c2.71.63 5.28 1.14 7.16 2.4a58.33 58.33 0 0 1 22.4 21.66c1.28 2.09 1.91 4.35 3 6.6l4.66 10.12a22.79 22.79 0 0 0 2.36 4.45c.42.59 1.56.76 2.26 1.11 1.91 1 4.2 1.74 6 2.88a79.23 79.23 0 0 1 9.55 7.12c1.08 1 1.84 2.36 2.88 3.41V88l-2.78.8c-2 .51-3.82.41-5.8.93a22.48 22.48 0 0 1-4 .94l.1.1c.76 2.12 4.83 3.86 6.67 5.14a27.74 27.74 0 0 1 6 5.84l1.73 1.66c.42.56.52 1.32.94 1.84v.18c-.8-.28-1.15-1-1.84-1.5a25.28 25.28 0 0 0-3.47-2.71c-2.23-1.39-4.76-2.18-7-3.57L90.19 95a13.68 13.68 0 0 1-3-3.54c-.41-.62-.48-1.39-.93-1.84.1-1.11 1.49-1.11 2.36-1.46a26.79 26.79 0 0 1 11.25-1.63zM40.78 36.19c.45.42 1.21.77 1.56 1.36a11.72 11.72 0 0 0 .7 1.21 3.27 3.27 0 0 1-1.22 2.88l-.11.11L40.39 39a18.07 18.07 0 0 1-1.83-2.36h-.11v-.24a10.88 10.88 0 0 1 2.36-.28z" style="fill:#fff;fill-rule:evenodd"/></g></g></svg>