<svg xmlns="http://www.w3.org/2000/svg" viewBox="0 0 128 128"><g data-name="Layer 2"><g data-name="Layer 1"><path d="M0 108.8A19.15 19.15 0 0 0 19.2 128h89.6a19.15 19.15 0 0 0 19.2-19.2V19.2A19.15 19.15 0 0 0 108.8 0H19.2A19.15 19.15 0 0 0 0 19.2z" style="fill:#00dc82"/><path d="M58.51 37.51a6.6 6.6 0 0 0-11.4 0L19.51 85a6.54 6.54 0 0 0 5.7 9.8h21.55a6.3 6.3 0 0 1-1.33-8L66.33 51z" style="fill-rule:evenodd;fill:#fff"/><path d="M76 47.92a5.5 5.5 0 0 1 9.43 0l22.84 38.82a5.34 5.34 0 0 1-4.71 8H57.87a5.35 5.35 0 0 1-4.72-8z" style="fill:#fff"/></g></g></svg>