<svg xmlns="http://www.w3.org/2000/svg" viewBox="0 0 128 128"><defs><style>.cls-2{fill:#fff}</style></defs><g id="Layer_2" data-name="Layer 2"><g id="Layer_1-2" data-name="Layer 1"><path d="M0 108.8A19.15 19.15 0 0 0 19.2 128h89.6a19.15 19.15 0 0 0 19.2-19.2V19.2A19.15 19.15 0 0 0 108.8 0H19.2A19.15 19.15 0 0 0 0 19.2z" style="fill:#777bb3"/><path class="cls-2" d="M29.07 69.34h-4.31l2.94-15H33c3.06 0 5.09.52 6 1.55s1.12 2.86.59 5.53c-.56 2.85-1.63 4.89-3.19 6.07s-4.05 1.8-7.37 1.8zM11.7 87.75h8.75a.82.82 0 0 0 .81-.67l1.95-9.87H30a28.46 28.46 0 0 0 8.42-1.06 16.4 16.4 0 0 0 6.13-3.63 18 18 0 0 0 5.74-10.14c1-4.93.2-8.86-2.29-11.67s-6.4-4.21-11.69-4.21h-16.8a.84.84 0 0 0-.82.66l-7.8 39.62a.78.78 0 0 0 .17.67.83.83 0 0 0 .64.3z"/><path class="cls-2" d="M69.63 77.45h9a.86.86 0 0 0 .83-.67l3.68-18.72c.81-4.09.16-7.12-1.94-9s-5.58-2.77-10.79-2.77h-6.88l1.91-9.71a.83.83 0 0 0-.17-.68.85.85 0 0 0-.65-.3h-8.81a.84.84 0 0 0-.83.67l-7.92 40.19a.8.8 0 0 0 .17.68.83.83 0 0 0 .65.31h8.81a.85.85 0 0 0 .83-.67l4.4-22.37h6.35c2.63 0 3.52.52 3.81.84.48.51.57 1.73.23 3.42l-3.5 17.79a.81.81 0 0 0 .17.69.85.85 0 0 0 .65.3zM97 69.45h-4.34l3-15.16H101c3.11 0 5.17.52 6.12 1.56s1.14 2.91.6 5.61c-.57 2.9-1.66 5-3.23 6.17s-4.11 1.82-7.49 1.82zM79.41 88.13h8.88a.83.83 0 0 0 .82-.67l2-10H98a28.46 28.46 0 0 0 8.54-1.08 16.58 16.58 0 0 0 6.22-3.68 19 19 0 0 0 3.77-4.7 18.49 18.49 0 0 0 2.06-5.63c1-5 .2-9-2.32-11.84s-6.5-4.27-11.87-4.27H87.33a.84.84 0 0 0-.82.67l-7.92 40.21a.82.82 0 0 0 .18.69.83.83 0 0 0 .64.3z"/></g></g></svg>