<svg xmlns="http://www.w3.org/2000/svg" viewBox="0 0 128 128"><g data-name="Layer 2"><g data-name="Layer 1"><path d="M0 108.8A19.15 19.15 0 0 0 19.2 128h89.6a19.15 19.15 0 0 0 19.2-19.2V19.2A19.15 19.15 0 0 0 108.8 0H19.2A19.15 19.15 0 0 0 0 19.2z" style="fill:#cf649a"/><path d="M97.14 68.86c8.36 0 13.07 5.36 12.85 10.33a6.25 6.25 0 0 1-4.37 5.58c-.48.07-.74.09-.81-.29s.13-.38.69-.72a5.37 5.37 0 0 0 2.5-3.61c.31-2.1-1.28-7.12-9.31-8.06a17.61 17.61 0 0 0-9 1 11 11 0 0 1 .77 3.38c.09 2.51-1.64 4.37-3.44 5.71A11.2 11.2 0 0 1 84 83.81a4.79 4.79 0 0 1-2.46.49c-1.58-.33-2.4-1.72-1.33-4.79a16 16 0 0 1 4.93-6.38 25.76 25.76 0 0 1-1.65-3.72 31.73 31.73 0 0 1-.88-3.71 75.53 75.53 0 0 1-5 8.75l-.48.72a11.31 11.31 0 0 1 1.06 4.07A6.51 6.51 0 0 1 75.31 85a12 12 0 0 1-2.92 1.53 10.22 10.22 0 0 1-3.4.78 3.61 3.61 0 0 1-2.27-.31 1.49 1.49 0 0 1-.4-2 54.82 54.82 0 0 1 4.33-5.44c.49-.59 1-1.19 1.43-1.8l.87-1.19a35 35 0 0 1-1.95-4.4 33.28 33.28 0 0 1-.89-3.72s-2.24 5.74-4.57 10.33c-1.8 3.57-3 5.71-3.55 6.65l-.22.35-.11.18c-.61.9-2 2.65-3.32 2.65-3.7 0-2.35-7.53-2.35-7.53s-1.08 2.78-2.31 5.19c-1 2-1.89 3.61-3.88 3.61a3.07 3.07 0 0 1-2.22-.72c-1.72-1.63-3-5.75-2.76-8.92A22.22 22.22 0 0 1 46 74.1c-1.15.61-2.28 1.25-3.4 1.91l-1.84 1.08.05.11c1.54 2.94 1.94 9.39-1.39 14.35s-9.51 8-15.54 6.31C22 97.32 19 93.29 21.56 87.69c2.24-5 11.18-9.62 13.53-10.78l.65-.36C31 72.45 19.33 66.91 17.68 58.4c-.47-2.38.65-8.12 7.69-14.7 5.94-5.54 14.17-9.76 21.77-12.47 12.77-4.53 26.26-1.86 28.36 6.28s-4.93 17.56-13.8 21.07c-8 3.07-14.53 2.58-17.22 1.7a8.77 8.77 0 0 1-5.31-4.18c-.18-.47-.47-1.23 0-1.48.29-.16.4-.14 1.17.72s3.69 3 9.29 2.35c14.69-1.64 23.54-13 20.74-19.2-2-4.29-13.29-6.23-27.43.82C25.68 47.9 24.74 55 24.6 57.69c-.4 7.4 9.15 11.3 14.32 16.81l.19.22 9.21-5c1.83-2.66 5.51-5.56 8.18-5.56 4.28 0 2.8 6.12 2.8 6.12s.09-.29.2-.29a1.64 1.64 0 0 1 1.89-.33c1.36.49 1 1.45 1 1.54s-1.61 5.63-2.28 9.12a6.08 6.08 0 0 0 0 2.87c.12 0 .39-.44.65-.89l.49-.95c0-.08-.34.59 0-.13s.91-1.79 1.5-3.12c1.18-2.62 5.69-12.67 6.07-13.78s.6-2.26.78-2.76 1.78-.88 3.64-.86 2 .81 2.06 1a29.76 29.76 0 0 0-1.1 3.94 12 12 0 0 0 .16 3.65 11.06 11.06 0 0 0 1.29 3.18c2-3.25 5.35-9.27 5.72-10.97a20.56 20.56 0 0 1 .77-2.76c.18-.5 1.79-.88 3.65-.86s2 .81 2.06 1a29.46 29.46 0 0 0-1.1 3.93 12 12 0 0 0 .16 3.65 17.62 17.62 0 0 0 1.88 4.33 19.17 19.17 0 0 1 8.38-2zM35.19 89.72a11.55 11.55 0 0 0 2.74-11.33l-.42.26-.18.1-1.64 1a42.66 42.66 0 0 0-6.27 4.67c-3.26 3.09-3.93 7.37-2.22 8.36s5.34-.16 8-3.07zm19.42-13.19c.58-1.41 2.84-7.69 2.37-8.56-.4-.67-2-.13-3.45 1.5a20 20 0 0 0-3.16 5.79c-1.43 4.32-.81 8.71.2 9 1.17.33 3.12-5.47 4-7.73zm16 7.65c1.12-.7 3.61-2.44 3.61-5v-.21l-1.57 2c-.79 1-2.8 3.14-2.8 3.14s-.28.27-.16.35.53 0 .92-.25zM83 81.34a5.07 5.07 0 0 0 3.74-5 4.5 4.5 0 0 0-.27-1.56 11.15 11.15 0 0 0-2.74 3.54c-1 2.1-1 2.77-.72 3z" style="fill:#fff"/></g></g></svg>