<svg xmlns="http://www.w3.org/2000/svg" viewBox="0 0 128 128"><g data-name="Layer 2"><g data-name="Layer 1"><path d="M0 108.8A19.15 19.15 0 0 0 19.2 128h89.6a19.15 19.15 0 0 0 19.2-19.2V19.2A19.15 19.15 0 0 0 108.8 0H19.2A19.15 19.15 0 0 0 0 19.2z" style="fill:#42a6b3"/><path d="M57.07 47c9.72 2.43 12.16 17 31.61 17q19.46 0 24.32-19.45-7.29 9.72-17 7.29c-9.73-2.43-12.16-17-31.62-17Q44.91 34.82 40 54.27q7.35-9.72 17.07-7.27zM32.75 76.16c9.73 2.43 12.16 17 31.61 17q19.45 0 24.32-19.45-7.29 9.72-17 7.29C61.93 78.59 59.5 64 40 64q-19.4 0-24.27 19.45 7.27-9.72 17.02-7.29z" style="fill:#fff;fill-rule:evenodd"/></g></g></svg>