<svg xmlns="http://www.w3.org/2000/svg" viewBox="0 0 128 128"><defs><style>.cls-1{fill:#fff;}</style></defs><g id="Layer_2" data-name="Layer 2"><g id="Layer_1-2" data-name="Layer 1"><path d="M0,108.8A19.15,19.15,0,0,0,19.2,128h89.6A19.15,19.15,0,0,0,128,108.8V19.2A19.15,19.15,0,0,0,108.8,0H19.2A19.15,19.15,0,0,0,0,19.2Z"/><path class="cls-1" d="M21.3,74.94l11.13-7a6,6,0,0,0,0-10.1l-11.13-7a6,6,0,0,1-2.8-5V42a6,6,0,0,1,9.28-4.94l30.76,20.7a6,6,0,0,1,0,9.87l-30.76,21a6,6,0,0,1-9.31-4.92V80A5.94,5.94,0,0,1,21.3,74.94Z"/><rect class="cls-1" x="58.86" y="77.74" width="50.64" height="14.23" rx="7.12"/></g></g></svg>