<svg xmlns="http://www.w3.org/2000/svg" viewBox="0 0 128 128"><g data-name="Layer 2"><g data-name="Layer 1"><path d="M0 108.8A19.15 19.15 0 0 0 19.2 128h89.6a19.15 19.15 0 0 0 19.2-19.2V19.2A19.15 19.15 0 0 0 108.8 0H19.2A19.15 19.15 0 0 0 0 19.2z" style="fill:#007acc"/><path d="M109 28.35v71.28L86.5 109 19 86.28l67.5 10.06V19zm-33.75 9.07V77.5l-12.37 5.25L42.2 62.31l-12.44 9.38L24.62 70l12.66-12.54L24.62 45l5.14-1.72 12.44 9.33 20.68-20.45zm-26.58 20 14.21 10.8V46.75z" style="fill:#fff"/></g></g></svg>