<svg xmlns="http://www.w3.org/2000/svg" viewBox="0 0 128 128"><defs><style>.cls-2{fill:#fff;fill-rule:evenodd}</style></defs><g id="Layer_2" data-name="Layer 2"><g id="Layer_1-2" data-name="Layer 1"><path d="M0 108.8A19.15 19.15 0 0 0 19.2 128h89.6a19.15 19.15 0 0 0 19.2-19.2V19.2A19.15 19.15 0 0 0 108.8 0H19.2A19.15 19.15 0 0 0 0 19.2z" style="fill:#4dba87"/><path class="cls-2" d="M67.09 64.31 86.9 29.44a3.55 3.55 0 0 0-3.08-5.3h-6.51A3.53 3.53 0 0 0 74.2 26l-7.09 13a3.54 3.54 0 0 1-6.22 0L53.8 26a3.53 3.53 0 0 0-3.11-1.86h-6.44a3.55 3.55 0 0 0-3.09 5.29l19.77 34.88a3.54 3.54 0 0 0 6.16 0z"/><path class="cls-2" d="M96.77 25.94 67.08 78.2a3.54 3.54 0 0 1-6.16 0L31.31 25.94a3.55 3.55 0 0 0-3.08-1.8h-6.71a3.54 3.54 0 0 0-3.09 5.28L60.91 105a3.54 3.54 0 0 0 6.18 0l42.48-75.53a3.54 3.54 0 0 0-3.09-5.28h-6.63a3.54 3.54 0 0 0-3.08 1.75z"/></g></g></svg>